<svg xmlns="http://www.w3.org/2000/svg" width="60" height="60" viewBox="0 0 60 60">
    <path fill="#FFF" d="M52.543 39.956c4.276-5.142 6.631-11.66 6.631-18.352 0-11.87-9.638-21.529-21.483-21.529-2.312 0-4.597.372-6.795 1.105l-.754.253c-2.209.737-4.627.737-6.837 0L20.295.427C19.6.194 18.872.075 18.135.075c-5.789 0-10.499 4.72-10.499 10.52v.288c0 5.306 4.064 9.678 9.245 10.182-.429 1.628-.655 3.299-.655 4.988v3.464c0 1.328-.163 2.654-.485 3.943l-.627 2.515.887.443c1.024.513 2.148.828 3.29.925l.962 3.857h4.434c-.166.613-.49 1.18-.941 1.633l-1.004 1.007.312.781c1.258 3.15 4.258 5.187 7.644 5.187.601 0 1.203-.066 1.786-.196l3.785-.843v.027c0 .925-.449 1.797-1.199 2.335l-2.626 1.88c-1.773 1.268-3.074 3.033-3.762 5.102l-.418 1.259h26.508l-.667-2.008c-.75-2.252-2.406-3.99-4.474-4.913V43.46l2.913-3.503zM9.544 10.883v-.287c0-4.747 3.854-8.608 8.59-8.608.532 0 1.056.085 1.559.255l3.009 1.004c2.6.868 5.444.868 8.044 0l.755-.252c2-.668 4.083-1.007 6.19-1.007 10.794 0 19.574 8.799 19.574 19.616 0 6.246-2.198 12.33-6.188 17.127l-2.466 2.966-7.177-7.193c1.594-1.671 2.47-3.858 2.472-6.243.001-1.142-.443-2.216-1.25-3.023-.806-.808-1.876-1.253-3.07-1.253-1.164 0-2.256.452-3.075 1.272l-.414.416c-1.933-1.147-3.374-2.933-4.09-5.092l-.718-2.158c-.606-1.822-2.3-3.045-4.26-3.045-1.043 0-2.02.341-2.827.988l-1.69 1.353c-1.192.957-2.689 1.484-4.215 1.484h-.418c-4.596 0-8.335-3.733-8.335-8.32zM52.1 57.459h-11.62c.994-2.309 3.265-3.826 5.81-3.826 2.546 0 4.816 1.517 5.81 3.826zm-5.81-5.738c-3.551 0-6.692 2.268-7.814 5.643l-.032.095h-7.416c.6-1.143 1.458-2.129 2.525-2.892l2.626-1.88c1.251-.896 1.999-2.351 1.999-3.892v-.451l2.116-.472-.414-1.868-7.81 1.741c-.45.1-.91.15-1.372.15-2.462 0-4.66-1.402-5.706-3.605l.104-.105c1.035-1.037 1.629-2.474 1.629-3.941v-.956h-4.981l-.955-3.826h-.745c-.922 0-1.846-.183-2.701-.534l.25-1.005c.36-1.44.542-2.922.542-4.406v-3.464c0-1.683.253-3.347.723-4.96 1.761-.117 3.465-.77 4.848-1.88l1.69-1.353c.464-.372 1.03-.57 1.677-.57 1.094 0 2.06.698 2.405 1.737l.718 2.159c.95 2.859 2.955 5.176 5.645 6.523l.616.308 1.406-1.41c.458-.456 1.07-.709 1.778-.709.63 0 1.222.246 1.667.692.445.447.69 1.04.69 1.736 0 1.88-.732 3.646-2.057 4.974l-1.204 1.206 8.985 9.003v8.346c-.468-.083-.944-.134-1.432-.134zM23.563 28.505l2.633 1.32-.854 1.711-5.002-2.506 3.8-3.807 1.349 1.352-1.926 1.93zM9.177 46.773c.233-.186.367-.465.367-.766 0-.541-.439-.981-.979-.981H2.863C1.285 45.026 0 43.739 0 42.156c0-1.581 1.285-2.868 2.863-2.868H8.73c.45 0 .815-.368.815-.817 0-.311-.173-.591-.451-.73l-1.497-.75c-1.153-.578-1.87-1.74-1.87-3.033 0-1.808 1.468-3.278 3.271-3.278.504 0 1.01.12 1.462.344l3.33 1.67-.855 1.71-3.328-1.668c-.187-.093-.399-.143-.609-.143-.75 0-1.362.612-1.362 1.365 0 .563.312 1.07.815 1.321l1.498.75c.929.466 1.505 1.402 1.505 2.442 0 1.505-1.222 2.73-2.724 2.73H2.863c-.526 0-.954.428-.954.956s.428.956.954.956h5.702c1.593 0 2.888 1.298 2.888 2.894 0 .884-.395 1.707-1.083 2.26l-3.153 2.527c-.34.273-.536.68-.536 1.118 0 .618.393 1.164.977 1.359.465.154.969.064 1.349-.24l3.205-2.57c.526-.42 1.187-.654 1.86-.654h.13c1.641 0 2.978 1.34 2.978 2.986 0 .786-.318 1.555-.873 2.11l-.723.726c-.199.2-.313.476-.313.758 0 .591.48 1.072 1.07 1.072.34 0 .665-.108.936-.313l3.148-2.365 1.145 1.53-3.147 2.366c-.595.447-1.336.695-2.082.695-1.643 0-2.98-1.34-2.98-2.985 0-.786.319-1.555.873-2.11l.724-.726c.198-.2.313-.476.313-.758 0-.591-.48-1.072-1.07-1.072h-.129c-.241 0-.48.083-.67.235l-3.204 2.57c-.889.71-2.062.92-3.14.561-1.369-.458-2.286-1.733-2.286-3.175 0-1.02.456-1.973 1.252-2.611l3.153-2.528zm4.185-1.747v-1.913h1.909v1.913h-1.91zm1.909-5.738h1.909V41.2h-1.91v-1.912zm1.909 5.738h1.908v1.913H17.18v-1.913zm1.908 3.826h1.91v1.912h-1.91v-1.912z"/>
</svg>
