<svg xmlns="http://www.w3.org/2000/svg" width="60" height="60" viewBox="0 0 60 60">
    <g fill="#FFF">
        <path d="M18.281 41.719H41.72c.647 0 1.172-.525 1.172-1.172 0-.647-.525-1.172-1.172-1.172H18.28c-.647 0-1.172.525-1.172 1.172 0 .647.525 1.172 1.172 1.172zM45.126 19.093c-.458-.457-1.2-.457-1.658 0l-2.687 2.687-2.687-2.687c-.457-.457-1.2-.457-1.657 0-.458.458-.458 1.2 0 1.658l2.687 2.686-2.687 2.687c-.458.458-.458 1.2 0 1.658.229.229.529.343.829.343.3 0 .6-.114.828-.343l2.687-2.687 2.687 2.687c.23.229.529.343.829.343.3 0 .6-.114.829-.343.457-.458.457-1.2 0-1.658l-2.687-2.686 2.687-2.687c.457-.458.457-1.2 0-1.658zM14.874 27.782c.23.229.53.343.83.343.299 0 .599-.114.828-.343l2.687-2.687 2.687 2.687c.229.229.528.343.828.343.3 0 .6-.114.829-.343.458-.458.458-1.2 0-1.658l-2.687-2.686 2.687-2.687c.458-.458.458-1.2 0-1.658-.457-.457-1.2-.457-1.657 0l-2.687 2.687-2.687-2.687c-.458-.457-1.2-.457-1.658 0-.457.458-.457 1.2 0 1.658l2.687 2.686-2.687 2.687c-.457.458-.457 1.2 0 1.658z"/>
        <circle cx="51.6" cy="49.092" r="1.172"/>
        <path d="M59.375 23.956c-1.134-5.458-3.777-10.581-7.642-14.642C46.112 3.406 38.15 0 30 0 21.744 0 13.684 3.498 8.053 9.541 2.916 15.052 0 22.467 0 30c0 7.615 2.984 15.11 8.224 20.64C13.844 56.568 21.835 60 30.002 60c3.412 0 6.759-.568 9.95-1.69 3.085-1.085 5.957-2.662 8.539-4.685.246-.194.403-.471.44-.782.038-.31-.047-.618-.24-.864-.223-.285-.56-.449-.923-.449-.265 0-.514.087-.722.25-4.907 3.844-10.8 5.876-17.046 5.876-7.385 0-14.33-2.877-19.556-8.1-5.223-5.226-8.1-12.172-8.1-19.557 0-7.386 2.877-14.332 8.1-19.558 5.225-5.223 12.17-8.1 19.556-8.1 7.385 0 14.33 2.877 19.556 8.1 5.223 5.226 8.1 12.17 8.1 19.558 0 5.03-1.364 9.956-3.944 14.243-.333.553-.155 1.275.4 1.61.182.108.39.167.603.167.415 0 .79-.212 1.004-.567 1.376-2.284 2.439-4.74 3.16-7.301.744-2.642 1.121-5.384 1.121-8.152 0-2.036-.213-4.062-.625-6.043z"/>
    </g>
</svg>
