<svg xmlns="http://www.w3.org/2000/svg" width="267" height="73" viewBox="0 0 267 73">
    <defs>
        <linearGradient id="prefix__a" x1="50%" x2="50%" y1="0%" y2="100%">
            <stop offset="0%" stop-color="#F7B200"/>
            <stop offset="100%" stop-color="#FF00E2"/>
        </linearGradient>
        <linearGradient id="prefix__b" x1="0%" x2="190.955%" y1="50%" y2="142.604%">
            <stop offset="0%" stop-color="#7600FF"/>
            <stop offset="100%" stop-color="#F64" stop-opacity="0"/>
        </linearGradient>
        <linearGradient id="prefix__c" x1="-18.729%" x2="132.626%" y1="50%" y2="50%">
            <stop offset="0%" stop-color="#7600FF"/>
            <stop offset="100%" stop-color="#F64"/>
        </linearGradient>
        <linearGradient id="prefix__d" x1="-27.212%" x2="99.952%" y1="-30.766%" y2="128.744%">
            <stop offset="0%" stop-color="#F7B200"/>
            <stop offset="100%" stop-color="#FF00E2"/>
        </linearGradient>
        <linearGradient id="prefix__e" x1="-27.212%" x2="99.952%" y1="-30.766%" y2="128.744%">
            <stop offset="0%" stop-color="#F7B200"/>
            <stop offset="100%" stop-color="#FF00E2"/>
        </linearGradient>
        <linearGradient id="prefix__f" x1="-27.212%" x2="99.952%" y1="-30.766%" y2="128.744%">
            <stop offset="0%" stop-color="#F7B200"/>
            <stop offset="100%" stop-color="#FF00E2"/>
        </linearGradient>
        <linearGradient id="prefix__g" x1="0%" x2="100%" y1="50%" y2="50%">
            <stop offset="0%" stop-color="#F7B200"/>
            <stop offset="100%" stop-color="#FF00E2"/>
        </linearGradient>
    </defs>
    <g fill="none" fill-rule="evenodd">
        <g fill-rule="nonzero" transform="translate(0 -10) translate(0 12)">
            <path fill="url(#prefix__a)" d="M71.98 32.454c.263 3.41-2.13 6.435-5.344 6.758-2.461.247-4.687-1.162-5.715-3.364l-2.917.258-2.202 1.064c-.504.243-.843.725-.92 1.279-.208 1.493-.585 2.93-1.11 4.297-.178.463-.147.98.095 1.411l.785 1.405 2.181 1.466c1.15-.44 2.489-.335 3.59.405 1.866 1.255 2.314 3.838.926 5.655-1.195 1.566-3.416 1.996-5.107.99-1.078-.64-1.728-1.703-1.887-2.839l-2.418-1.624-1.521-.186c-.523-.064-1.044.116-1.424.481-1.284 1.225-2.734 2.278-4.31 3.12-.53.283-.871.826-.908 1.426l-.194 3.087.957 3.803c1.629.456 2.975 1.75 3.418 3.509.669 2.66-.98 5.358-3.67 5.958-2.427.542-4.916-.875-5.687-3.243-.6-1.849-.049-3.76 1.22-5.01l-.961-3.825-1.485-2.39c-.398-.642-1.102-1.021-1.857-1.02h-.012c-1.3 0-2.572-.13-3.802-.372-.733-.146-1.49.087-2.003.63l-1.962 2.073-2.196 4.564c.514 1.046.56 2.31.017 3.443-.978 2.03-3.471 2.837-5.464 1.715-1.706-.963-2.444-3.089-1.701-4.905.506-1.238 1.557-2.066 2.746-2.343l2.21-4.593.433-3.083c.079-.569-.138-1.142-.584-1.502-1.758-1.429-3.264-3.154-4.443-5.101-.292-.484-.818-.777-1.383-.782l-3.073-.03-3.364 1.06c-.236 2.096-1.669 3.958-3.805 4.631-2.871.905-5.929-.676-6.86-3.533-.932-2.857.641-5.981 3.49-6.925 1.994-.66 4.089-.112 5.506 1.238l3.571-1.125 2.608-1.862c.388-.275.594-.737.555-1.21-.043-.526-.065-1.055-.065-1.591 0-2.912.639-5.676 1.78-8.162.167-.365.162-.784-.013-1.144l-.773-1.583-2.096-1.585c-1.174.377-2.504.196-3.562-.603-1.795-1.357-2.098-3.96-.612-5.698 1.279-1.496 3.521-1.802 5.154-.704 1.04.7 1.632 1.795 1.727 2.938l2.324 1.757 2.342.418c1.704-1.585 3.69-2.87 5.873-3.77l.55-3.346-.694-3.457c-2.053-.53-3.72-2.106-4.17-4.208-.632-2.97 1.405-5.862 4.552-6.458 3.146-.597 6.21 1.324 6.842 4.294.474 2.222-.546 4.4-2.41 5.606l.656 3.26 1.609 2.572c.105.168.29.269.487.269h.003c3.685 0 7.135 1.027 10.082 2.81.162.097.361.11.532.03l2.52-1.17 2.942-3.188c-.177-1.143.149-2.355.994-3.27 1.528-1.654 4.143-1.696 5.72-.042 1.384 1.451 1.438 3.766.124 5.281-.85.981-2.07 1.433-3.261 1.344l-2.943 3.189-.955 2.575c-.067.178-.037.378.074.533 1.16 1.595 2.087 3.372 2.725 5.28.177.525.593.933 1.125 1.083l2.393.671 3.108-.275c.762-2.202 2.666-3.867 5.003-4.102 3.214-.323 6.033 2.179 6.294 5.587z"/>
            <circle cx="18.498" cy="18.504" r="14.436" fill="url(#prefix__b)" transform="rotate(107 20.708 33.294)"/>
            <path fill="url(#prefix__c)" d="M25.496 35.5c0-7.257 5.424-13.269 12.504-14.333-.733-.11-1.484-.167-2.248-.167C27.604 21 21 27.492 21 35.5S27.604 50 35.752 50c.764 0 1.515-.057 2.248-.167-7.08-1.065-12.504-7.076-12.504-14.333z"/>
            <g transform="translate(7 1)">
                <ellipse cx="4.132" cy="4.144" fill="#EB5569" rx="4.12" ry="4.122"/>
                <ellipse cx="3.006" cy="58.474" fill="#EB5569" rx="2.721" ry="2.722"/>
                <ellipse cx="52.967" cy="62.946" fill="#EB5569" rx="4.008" ry="4.01"/>
                <ellipse cx="24.032" cy="30.587" fill="url(#prefix__d)" rx="3.737" ry="3.738"/>
                <ellipse cx="27.032" cy="42.199" fill="url(#prefix__e)" rx="2.543" ry="2.545"/>
                <ellipse cx="35.018" cy="34.578" fill="url(#prefix__f)" rx="2.136" ry="2.137"/>
            </g>
        </g>
        <g font-family="Poppins-Bold, Poppins" font-weight="bold">
            <text fill="url(#prefix__g)" font-size="42" letter-spacing="-.7" transform="translate(0 -10) translate(84)">
                <tspan x="0" y="44">Covid-19</tspan>
            </text>
            <text fill="#FFF" font-size="36" letter-spacing="-.6" transform="translate(0 -10) translate(84)">
                <tspan x="0" y="82">Tracker</tspan>
            </text>
        </g>
    </g>
</svg>
