<svg xmlns="http://www.w3.org/2000/svg" width="62" height="61" viewBox="0 0 62 61">
    <path fill="#FFF" stroke="#050216" stroke-width=".5" d="M12.81 37.145c3.146 0 6.103 1.225 8.326 3.45 4.592 4.592 4.592 12.064 0 16.656-2.223 2.225-5.18 3.45-8.327 3.45-3.146 0-6.104-1.225-8.329-3.45-4.592-4.592-4.592-12.064 0-16.656 2.225-2.225 5.183-3.45 8.33-3.45zm19.553-9.72c2.189-.2 4.32.459 5.998 1.856h0l18.981 15.8c3.478 2.895 3.952 8.082 1.059 11.563h0l-.204.235c-1.383 1.54-3.273 2.488-5.358 2.679-.258.023-.514.035-.77.035-1.914 0-3.747-.658-5.229-1.891h0L27.86 41.899c-1.68-1.397-2.716-3.373-2.916-5.563-.2-2.189.46-4.319 1.859-5.997 1.396-1.68 3.371-2.715 5.561-2.915zM4.018 45.504c-1.308 3.38-.604 7.366 2.12 10.09 1.782 1.781 4.151 2.763 6.671 2.763 1.191 0 2.347-.222 3.424-.641h0zm43.235-5.773l-7.504 9.016 8.591 7.153c1.197.996 2.72 1.466 4.285 1.323 1.566-.143 2.977-.882 3.973-2.079 2.069-2.487 1.73-6.194-.755-8.263h0l-8.59-7.15zM7.245 41.303c-.39.286-.76.602-1.107.95-.35.35-.666.72-.95 1.107h0l13.185 13.182c.389-.285.758-.6 1.105-.948.35-.35.667-.721.95-1.11h0zm5.564-1.814c-1.19 0-2.346.221-3.423.64h0l12.213 12.21c1.307-3.379.602-7.364-2.12-10.087-1.781-1.782-4.15-2.763-6.67-2.763zm20.317-9.756c-.183 0-.366.009-.55.025-1.566.143-2.977.882-3.973 2.08-.999 1.198-1.47 2.72-1.326 4.285.143 1.566.882 2.978 2.081 3.974h0l8.59 7.152 7.503-9.016-8.59-7.15c-1.057-.88-2.366-1.35-3.735-1.35zm-6.457-28.67c2.198 0 4.26.85 5.805 2.395h0c3.197 3.202 3.197 8.41 0 11.61h0L15.01 32.532c-1.6 1.599-3.703 2.398-5.805 2.398s-4.204-.799-5.804-2.397C.2 29.33.2 24.123 3.401 20.923h0L20.864 3.457c1.545-1.545 3.607-2.396 5.805-2.396zM12.96 14.675L5.058 22.58c-2.287 2.288-2.287 6.009 0 8.296 2.287 2.284 6.008 2.284 8.296 0h0l7.902-7.903-8.295-8.296zm36.266-8.303c3.147 0 6.104 1.226 8.327 3.45 4.592 4.593 4.592 12.064 0 16.657-2.223 2.224-5.18 3.45-8.327 3.45-3.146 0-6.104-1.226-8.329-3.45-4.592-4.593-4.592-12.064 0-16.656 2.225-2.225 5.183-3.45 8.33-3.45zm8.79 8.362l-12.213 12.21c1.077.42 2.233.64 3.423.64 2.52 0 4.89-.98 6.67-2.763h0c2.722-2.722 3.427-6.708 2.12-10.087h0zm-8.79-6.018c-2.52 0-4.89.981-6.671 2.764-2.724 2.723-3.428 6.71-2.12 10.09h0l2.386-2.383c.458-.458 1.2-.457 1.657 0 .458.458.458 1.2 0 1.658h0l-2.872 2.869c.283.387.6.758.949 1.107.347.348.718.664 1.107.95h0L56.847 12.59c-.283-.389-.6-.76-.95-1.11-.347-.348-.717-.663-1.106-.949h0l-2.871 2.87c-.229.228-.529.342-.828.342-.3 0-.6-.114-.83-.343-.457-.458-.457-1.2.001-1.658h0l2.388-2.385c-1.077-.42-2.233-.641-3.424-.641zM26.67 3.407c-1.572 0-3.045.606-4.148 1.709h0l-7.903 7.903 8.295 8.296 7.903-7.904c2.284-2.287 2.284-6.008 0-8.296-1.102-1.102-2.575-1.709-4.147-1.709zm19.654 12.362c.29-.58.993-.814 1.572-.524.579.29.814.993.524 1.572-.206.411-.622.65-1.053.65-.175 0-.353-.039-.52-.123-.58-.29-.816-.99-.527-1.569h0z"/>
</svg>
